<svg width="93" height="40" viewBox="0 0 93 40" fill="none" xmlns="http://www.w3.org/2000/svg">
    <path d="M57.1781 5.77963V1.42432H55.5632V0.474673H59.7523V1.42432H58.1854V5.77963H57.1941H57.1781ZM60.152 5.77963V0.474673H61.1593V5.77963H60.152ZM64.1972 5.82875C63.4617 5.82875 62.8381 5.56677 62.3265 5.04283C61.8149 4.51888 61.559 3.88032 61.559 3.12715C61.559 2.37398 61.8149 1.73542 62.3265 1.21147C62.8381 0.687526 63.4617 0.40918 64.1972 0.40918C64.7248 0.40918 65.2045 0.556539 65.6202 0.851259C66.0359 1.14598 66.3557 1.53894 66.5635 2.03014L65.6202 2.30848C65.4763 2.03014 65.2844 1.80091 65.0446 1.63718C64.8048 1.47344 64.517 1.39158 64.1972 1.37521C63.7335 1.37521 63.3338 1.53894 63.03 1.88278C62.7102 2.22662 62.5663 2.63595 62.5663 3.12715C62.5663 3.61835 62.7262 4.02768 63.03 4.35515C63.3498 4.69899 63.7335 4.86272 64.1972 4.86272C64.8367 4.86272 65.3004 4.568 65.6042 3.96219L66.5635 4.22416C66.3557 4.71536 66.0359 5.09195 65.6202 5.38667C65.2045 5.68139 64.7248 5.82875 64.1972 5.82875ZM66.9473 5.77963V0.474673H67.9546V3.0944L70.193 0.474673H71.4241L69.2976 2.93067L71.4881 5.796H70.2569L68.6421 3.70022L67.9546 4.48613V5.81237H66.9473V5.77963ZM71.6959 5.77963V0.474673H75.4213V1.40795H72.7032V2.65232H75.1335V3.5856H72.7032V4.82997H75.4213V5.77963H71.6959ZM77.372 5.77963V1.42432H75.7571V0.474673H79.9462V1.42432H78.3793V5.77963H77.388H77.372ZM80.3459 5.77963V0.474673H81.3532V5.77963H80.3459ZM81.9448 5.77963V0.474673H83.5916L85.5103 4.87909V0.474673H86.4856V5.77963H84.8867L82.9201 1.26059V5.77963H81.9448ZM89.5075 5.84512C88.772 5.84512 88.1484 5.58315 87.6368 5.0592C87.1251 4.53525 86.8693 3.8967 86.8693 3.14352C86.8693 2.39035 87.1251 1.75179 87.6368 1.22785C88.1484 0.703899 88.772 0.425553 89.5075 0.425553C90.0351 0.425553 90.5148 0.572913 90.9305 0.851259C91.3462 1.14598 91.666 1.52256 91.8738 2.01376L90.9145 2.29211C90.7866 2.01376 90.5947 1.78454 90.3389 1.63718C90.0991 1.47344 89.8113 1.40795 89.5075 1.40795C89.0438 1.40795 88.6441 1.57168 88.3403 1.91552C88.0205 2.25936 87.8766 2.6687 87.8766 3.1599C87.8766 3.6511 88.0365 4.06043 88.3403 4.38789C88.6601 4.71536 89.0438 4.89547 89.5075 4.89547C89.8592 4.89547 90.179 4.79723 90.4508 4.58437C90.7226 4.37152 90.9145 4.09317 91.0264 3.71659H89.5235L89.5075 2.8488H92.0017V3.22539C92.0017 3.97856 91.7619 4.61712 91.2822 5.10832C90.8026 5.59952 90.211 5.84512 89.4915 5.84512H89.5075ZM57.6418 12.7547C56.9223 12.7383 56.2188 12.5091 55.5472 12.0342V10.97C56.3147 11.5267 57.0342 11.805 57.6897 11.805C57.9615 11.805 58.1694 11.7559 58.3293 11.6576C58.4892 11.5594 58.5691 11.412 58.5691 11.2319C58.5691 11.0518 58.4572 10.8881 58.2493 10.7735C58.0415 10.6425 57.6897 10.5279 57.1941 10.3969C56.6185 10.2495 56.2028 10.0694 55.931 9.82383C55.6592 9.57823 55.5312 9.26714 55.5312 8.90693C55.5312 8.44848 55.7071 8.07189 56.0749 7.77717C56.4426 7.48245 56.8903 7.35146 57.4179 7.35146C58.1054 7.35146 58.761 7.53157 59.3686 7.90816V8.95605C59.0808 8.75957 58.761 8.61221 58.4092 8.48122C58.0575 8.35024 57.7217 8.28474 57.4179 8.28474C57.1621 8.28474 56.9383 8.33386 56.7784 8.44848C56.6185 8.56309 56.5226 8.71045 56.5226 8.89056C56.5226 8.95605 56.5385 9.02154 56.5705 9.08704C56.6025 9.13616 56.6505 9.20165 56.7144 9.2344C56.7944 9.28351 56.8583 9.31626 56.9223 9.34901C56.9862 9.38175 57.0822 9.4145 57.2261 9.44725C57.354 9.47999 57.4659 9.51274 57.5458 9.54549C57.6258 9.56186 57.7537 9.59461 57.9296 9.64373C59.0328 9.92207 59.5764 10.446 59.5764 11.2483C59.5764 11.7395 59.3846 12.1161 59.0168 12.3944C58.6491 12.6728 58.1854 12.7874 57.6578 12.7874L57.6418 12.7547ZM61.3032 12.6892V11.0355L59.4965 7.38421H60.5677L61.7829 9.87295L63.014 7.38421H64.0693L62.2945 11.0027V12.6892H61.2872H61.3032ZM66.1478 12.7547C65.4283 12.7383 64.7248 12.5091 64.0533 12.0342V10.97C64.8208 11.5267 65.5402 11.805 66.1958 11.805C66.4676 11.805 66.6755 11.7559 66.8353 11.6576C66.9952 11.5594 67.0752 11.412 67.0752 11.2319C67.0752 11.0518 66.9633 10.8881 66.7554 10.7735C66.5475 10.6425 66.1958 10.5279 65.7001 10.3969C65.1245 10.2495 64.7088 10.0694 64.437 9.82383C64.1652 9.57823 64.0373 9.26714 64.0373 8.90693C64.0373 8.44848 64.2132 8.07189 64.5809 7.77717C64.9487 7.48245 65.3963 7.35146 65.924 7.35146C66.6115 7.35146 67.267 7.53157 67.8746 7.90816V8.95605C67.5868 8.75957 67.267 8.61221 66.9153 8.48122C66.5635 8.35024 66.2278 8.28474 65.924 8.28474C65.6682 8.28474 65.4443 8.33386 65.2844 8.44848C65.1085 8.56309 65.0286 8.71045 65.0286 8.89056C65.0286 8.95605 65.0446 9.02154 65.0766 9.08704C65.1085 9.13616 65.1565 9.20165 65.2205 9.2344C65.3004 9.28351 65.3644 9.31626 65.4283 9.34901C65.4923 9.38175 65.5882 9.4145 65.7321 9.44725C65.86 9.47999 65.9719 9.51274 66.0519 9.54549C66.1318 9.56186 66.2597 9.59461 66.4356 9.64373C67.5388 9.92207 68.0825 10.446 68.0825 11.2483C68.0825 11.7395 67.8906 12.1161 67.5229 12.3944C67.1551 12.6728 66.6914 12.7874 66.1638 12.7874L66.1478 12.7547ZM69.9212 12.6892V8.33386H68.3063V7.38421H72.4954V8.33386H70.9285V12.6892H69.9372H69.9212ZM72.8791 12.6892V7.38421H76.6045V8.31749H73.8864V9.56186H76.3167V10.4951H73.8864V11.7395H76.6045V12.6892H72.8791ZM77.1002 12.6892V7.38421H78.699L80.0581 11.936L81.4171 7.38421H83.032V12.6892H82.0727V8.35024L80.7776 12.6892H79.3546L78.0595 8.36661V12.6892H77.1002Z" fill="#C2C1CF"/>
    <path fill-rule="evenodd" clip-rule="evenodd" d="M42.7541 32.7957C40.2598 32.7957 38.1493 31.1257 37.4138 28.8334H48.0784H52.3794C52.4753 28.2603 52.5392 27.6709 52.5392 27.0651C52.5392 26.0336 52.3794 25.0348 52.0916 24.0851C51.0683 20.745 48.3822 18.1416 45.0245 17.323C44.4649 17.192 43.9053 17.0937 43.3137 17.061H42.1785C41.5709 17.0937 40.9633 17.192 40.3877 17.3393C37.0621 18.1744 34.4239 20.7614 33.4006 24.0851C33.1128 25.0184 32.9529 26.0336 32.9529 27.0651C32.9529 27.6709 33.0009 28.2603 33.1128 28.8334C33.9283 33.5162 37.9255 37.0692 42.7381 37.0692C46.4315 37.0692 49.6453 34.9734 51.3081 31.8788L47.0711 30.7C46.0478 31.9771 44.4809 32.7957 42.7381 32.7957H42.7541ZM18.8508 9.67663V0.0327466H14.2141H9.44939H9.40142C7.65864 0.0327466 6.02778 0.523946 4.63676 1.35898C1.8547 3.04544 0 6.13999 0 9.67663C0 11.2648 0.383732 12.7712 1.03927 14.0974C1.8547 15.7184 3.10183 17.061 4.63676 17.9943C4.65275 17.9943 4.65275 18.0106 4.66873 18.0106C6.05976 18.8457 7.69062 19.3369 9.4334 19.3369C11.1762 19.3369 12.7911 18.8621 14.1981 18.0106C14.2141 18.0106 14.2141 17.9943 14.23 17.9943V18.5182C14.23 21.2198 12.0875 23.4138 9.44939 23.4138C7.09903 23.4138 5.1484 21.6783 4.74868 19.386H4.66873H0.0639553C0.335765 22.5624 2.12651 25.2804 4.66873 26.8195C6.07575 27.6709 7.70661 28.1457 9.44939 28.1457C11.1922 28.1457 12.823 27.6545 14.23 26.8195C16.7723 25.2804 18.547 22.5461 18.8348 19.386C18.8668 19.0913 18.8668 18.7966 18.8668 18.5018V9.66025L18.8508 9.67663ZM4.63676 10.2006V9.67663C4.63676 6.97503 6.77926 4.78101 9.41741 4.78101H14.1981V9.67663V10.2006C14.1821 10.2006 14.1821 10.1842 14.1661 10.1842C13.9902 11.9198 12.935 13.377 11.464 14.0974C10.8404 14.4085 10.1369 14.5722 9.40142 14.5722C8.66594 14.5722 7.96243 14.4085 7.33887 14.0974C5.8679 13.377 4.81263 11.9198 4.63676 10.1842C4.62077 10.1842 4.62077 10.2006 4.60478 10.2006H4.63676ZM13.7024 1.09701C13.3986 1.08064 12.935 0.851412 12.2954 0.605813C12.935 0.851412 13.3826 1.09701 13.7024 1.09701ZM13.7504 1.09701H13.7344H13.7504ZM24.4469 4.45354H32.2175V0H24.4469H19.8261V19.3696H23.9512H24.4629C24.4469 14.867 24.4469 10.1187 24.4469 5.5833C24.4469 5.20671 24.4469 4.83013 24.4469 4.43717V4.45354ZM42.2584 11.314C39.8121 11.314 37.8295 9.28367 37.8295 6.77855V0H35.3992H33.1928V6.77855C33.1928 10.2661 35.0635 13.2951 37.8295 14.8833C38.8049 15.44 39.9081 15.833 41.0753 15.9804C41.459 16.0295 41.8587 16.0622 42.2584 16.0622C42.6582 16.0622 43.0579 16.0295 43.4416 15.9804C44.6088 15.833 45.696 15.44 46.6873 14.8833C49.4534 13.2951 51.3241 10.2661 51.3241 6.77855V0H49.1176H46.6873V6.77855C46.6873 9.28367 44.7047 11.314 42.2584 11.314ZM20.082 26.1318H15.2054L19.6023 40H20.2418H24.4789H26.6534H27.2449L31.2262 27.4417L32.7291 22.6934L34.7757 16.2751L35.0635 15.3582L34.8396 16.0622H29.963L29.8991 16.2751L23.7754 35.5628H23.0719L20.082 26.1318ZM47.5507 24.0524H37.9574C38.9488 22.3987 40.7235 21.2853 42.7541 21.2853C44.7847 21.2853 46.5594 22.3987 47.5507 24.0524Z" fill="#C2C1CF"/>
</svg>
