<svg width="92" height="40" viewBox="0 0 92 40" fill="none" xmlns="http://www.w3.org/2000/svg">
    <path d="M57.1761 5.77963V1.42432H55.5613V0.474673H59.7503V1.42432H58.1834V5.77963H57.1921H57.1761ZM60.1501 5.77963V0.474673H61.1574V5.77963H60.1501ZM64.1952 5.82875C63.4597 5.82875 62.8362 5.56677 62.3245 5.04283C61.8129 4.51888 61.5571 3.88032 61.5571 3.12715C61.5571 2.37398 61.8129 1.73542 62.3245 1.21147C62.8362 0.687526 63.4597 0.40918 64.1952 0.40918C64.7229 0.40918 65.2025 0.556539 65.6182 0.851259C66.0339 1.14598 66.3537 1.53894 66.5616 2.03014L65.6182 2.30848C65.4743 2.03014 65.2825 1.80091 65.0426 1.63718C64.8028 1.47344 64.515 1.39158 64.1952 1.37521C63.7316 1.37521 63.3318 1.53894 63.0281 1.88278C62.7083 2.22662 62.5644 2.63595 62.5644 3.12715C62.5644 3.61835 62.7243 4.02768 63.0281 4.35515C63.3478 4.69899 63.7316 4.86272 64.1952 4.86272C64.8348 4.86272 65.2985 4.568 65.6022 3.96219L66.5616 4.22416C66.3537 4.71536 66.0339 5.09195 65.6182 5.38667C65.2025 5.68139 64.7229 5.82875 64.1952 5.82875ZM66.9453 5.77963V0.474673H67.9526V3.0944L70.191 0.474673H71.4222L69.2957 2.93067L71.4861 5.796H70.255L68.6401 3.70022L67.9526 4.48613V5.81237H66.9453V5.77963ZM71.694 5.77963V0.474673H75.4194V1.40795H72.7013V2.65232H75.1316V3.5856H72.7013V4.82997H75.4194V5.77963H71.694ZM77.37 5.77963V1.42432H75.7551V0.474673H79.9442V1.42432H78.3773V5.77963H77.386H77.37ZM80.3439 5.77963V0.474673H81.3512V5.77963H80.3439ZM81.9428 5.77963V0.474673H83.5897L85.5083 4.87909V0.474673H86.4836V5.77963H84.8848L82.9181 1.26059V5.77963H81.9428ZM89.5055 5.84512C88.77 5.84512 88.1465 5.58315 87.6348 5.0592C87.1232 4.53525 86.8674 3.8967 86.8674 3.14352C86.8674 2.39035 87.1232 1.75179 87.6348 1.22785C88.1465 0.703899 88.77 0.425553 89.5055 0.425553C90.0332 0.425553 90.5128 0.572913 90.9285 0.851259C91.3442 1.14598 91.664 1.52256 91.8719 2.01376L90.9125 2.29211C90.7846 2.01376 90.5928 1.78454 90.3369 1.63718C90.0971 1.47344 89.8093 1.40795 89.5055 1.40795C89.0419 1.40795 88.6421 1.57168 88.3383 1.91552C88.0186 2.25936 87.8747 2.6687 87.8747 3.1599C87.8747 3.6511 88.0346 4.06043 88.3383 4.38789C88.6581 4.71536 89.0419 4.89547 89.5055 4.89547C89.8573 4.89547 90.1771 4.79723 90.4489 4.58437C90.7207 4.37152 90.9125 4.09317 91.0245 3.71659H89.5215L89.5055 2.8488H91.9998V3.22539C91.9998 3.97856 91.7599 4.61712 91.2803 5.10832C90.8006 5.59952 90.209 5.84512 89.4895 5.84512H89.5055ZM57.6398 12.7547C56.9203 12.7383 56.2168 12.5091 55.5453 12.0342V10.97C56.3127 11.5267 57.0322 11.805 57.6878 11.805C57.9596 11.805 58.1675 11.7559 58.3273 11.6576C58.4872 11.5594 58.5672 11.412 58.5672 11.2319C58.5672 11.0518 58.4552 10.8881 58.2474 10.7735C58.0395 10.6425 57.6878 10.5279 57.1921 10.3969C56.6165 10.2495 56.2008 10.0694 55.929 9.82383C55.6572 9.57823 55.5293 9.26714 55.5293 8.90693C55.5293 8.44848 55.7052 8.07189 56.0729 7.77717C56.4407 7.48245 56.8883 7.35146 57.416 7.35146C58.1035 7.35146 58.759 7.53157 59.3666 7.90816V8.95605C59.0788 8.75957 58.759 8.61221 58.4073 8.48122C58.0555 8.35024 57.7198 8.28474 57.416 8.28474C57.1602 8.28474 56.9363 8.33386 56.7764 8.44848C56.6165 8.56309 56.5206 8.71045 56.5206 8.89056C56.5206 8.95605 56.5366 9.02154 56.5686 9.08704C56.6005 9.13616 56.6485 9.20165 56.7125 9.2344C56.7924 9.28351 56.8564 9.31626 56.9203 9.34901C56.9843 9.38175 57.0802 9.4145 57.2241 9.44725C57.352 9.47999 57.4639 9.51274 57.5439 9.54549C57.6238 9.56186 57.7517 9.59461 57.9276 9.64373C59.0308 9.92207 59.5745 10.446 59.5745 11.2483C59.5745 11.7395 59.3826 12.1161 59.0149 12.3944C58.6471 12.6728 58.1834 12.7874 57.6558 12.7874L57.6398 12.7547ZM61.3013 12.6892V11.0355L59.4945 7.38421H60.5658L61.7809 9.87295L63.0121 7.38421H64.0673L62.2926 11.0027V12.6892H61.2853H61.3013ZM66.1459 12.7547C65.4264 12.7383 64.7229 12.5091 64.0513 12.0342V10.97C64.8188 11.5267 65.5383 11.805 66.1938 11.805C66.4656 11.805 66.6735 11.7559 66.8334 11.6576C66.9933 11.5594 67.0732 11.412 67.0732 11.2319C67.0732 11.0518 66.9613 10.8881 66.7534 10.7735C66.5456 10.6425 66.1938 10.5279 65.6982 10.3969C65.1226 10.2495 64.7069 10.0694 64.4351 9.82383C64.1633 9.57823 64.0353 9.26714 64.0353 8.90693C64.0353 8.44848 64.2112 8.07189 64.579 7.77717C64.9467 7.48245 65.3944 7.35146 65.922 7.35146C66.6095 7.35146 67.2651 7.53157 67.8727 7.90816V8.95605C67.5849 8.75957 67.2651 8.61221 66.9133 8.48122C66.5616 8.35024 66.2258 8.28474 65.922 8.28474C65.6662 8.28474 65.4424 8.33386 65.2825 8.44848C65.1066 8.56309 65.0267 8.71045 65.0267 8.89056C65.0267 8.95605 65.0426 9.02154 65.0746 9.08704C65.1066 9.13616 65.1546 9.20165 65.2185 9.2344C65.2985 9.28351 65.3624 9.31626 65.4264 9.34901C65.4903 9.38175 65.5863 9.4145 65.7302 9.44725C65.8581 9.47999 65.97 9.51274 66.0499 9.54549C66.1299 9.56186 66.2578 9.59461 66.4337 9.64373C67.5369 9.92207 68.0805 10.446 68.0805 11.2483C68.0805 11.7395 67.8886 12.1161 67.5209 12.3944C67.1532 12.6728 66.6895 12.7874 66.1619 12.7874L66.1459 12.7547ZM69.9192 12.6892V8.33386H68.3044V7.38421H72.4934V8.33386H70.9265V12.6892H69.9352H69.9192ZM72.8772 12.6892V7.38421H76.6026V8.31749H73.8845V9.56186H76.3148V10.4951H73.8845V11.7395H76.6026V12.6892H72.8772ZM77.0982 12.6892V7.38421H78.6971L80.0561 11.936L81.4152 7.38421H83.0301V12.6892H82.0707V8.35024L80.7756 12.6892H79.3526L78.0575 8.36661V12.6892H77.0982Z" fill="#DA151E"/>
    <path fill-rule="evenodd" clip-rule="evenodd" d="M42.7541 32.7957C40.2598 32.7957 38.1493 31.1257 37.4138 28.8334H48.0784H52.3794C52.4753 28.2603 52.5392 27.6709 52.5392 27.0651C52.5392 26.0336 52.3794 25.0348 52.0916 24.0851C51.0683 20.745 48.3822 18.1416 45.0245 17.323C44.4649 17.192 43.9053 17.0937 43.3137 17.061H42.1785C41.5709 17.0937 40.9633 17.192 40.3877 17.3393C37.0621 18.1744 34.4239 20.7614 33.4006 24.0851C33.1128 25.0184 32.9529 26.0336 32.9529 27.0651C32.9529 27.6709 33.0009 28.2603 33.1128 28.8334C33.9283 33.5162 37.9255 37.0692 42.7381 37.0692C46.4315 37.0692 49.6453 34.9734 51.3081 31.8788L47.0711 30.7C46.0478 31.9771 44.4809 32.7957 42.7381 32.7957H42.7541ZM18.8508 9.67663V0.0327466H14.2141H9.44939H9.40142C7.65864 0.0327466 6.02778 0.523946 4.63676 1.35898C1.8547 3.04544 0 6.13999 0 9.67663C0 11.2648 0.383732 12.7712 1.03927 14.0974C1.8547 15.7184 3.10183 17.061 4.63676 17.9943C4.65275 17.9943 4.65275 18.0106 4.66873 18.0106C6.05976 18.8457 7.69062 19.3369 9.4334 19.3369C11.1762 19.3369 12.7911 18.8621 14.1981 18.0106C14.2141 18.0106 14.2141 17.9943 14.23 17.9943V18.5182C14.23 21.2198 12.0875 23.4138 9.44939 23.4138C7.09903 23.4138 5.1484 21.6783 4.74868 19.386H0.0639553C0.335765 22.5624 2.12651 25.2804 4.66873 26.8195C6.07575 27.6709 7.70661 28.1457 9.44939 28.1457C11.1922 28.1457 12.823 27.6545 14.23 26.8195C16.7723 25.2804 18.547 22.5461 18.8348 19.386C18.8668 19.0913 18.8668 18.7966 18.8668 18.5018V9.66025L18.8508 9.67663ZM4.63676 10.2006V9.67663C4.63676 6.97503 6.77926 4.78101 9.41741 4.78101H14.1981V9.67663V10.2006C14.1821 10.2006 14.1821 10.1842 14.1661 10.1842C13.9902 11.9198 12.935 13.377 11.464 14.0974C10.8404 14.4085 10.1369 14.5722 9.40142 14.5722C8.66594 14.5722 7.96243 14.4085 7.33887 14.0974C5.8679 13.377 4.81263 11.9198 4.63676 10.1842C4.62077 10.1842 4.62077 10.2006 4.60478 10.2006H4.63676ZM13.7024 1.09701C13.3986 1.08064 12.935 0.851412 12.2954 0.605813C12.935 0.851412 13.3826 1.09701 13.7024 1.09701ZM24.4469 4.45354H32.2175V0H24.4469H19.8261V19.3696H24.4629C24.4469 14.867 24.4629 15.5354 24.4629 11C24.4629 10.6234 24.4469 4.45354 24.4469 4.45354ZM42.2584 11.314C39.8121 11.314 37.8295 9.28367 37.8295 6.77855V0H35.3992H33.1928V6.77855C33.1928 10.2661 35.0635 13.2951 37.8295 14.8833C38.8049 15.44 39.9081 15.833 41.0753 15.9804C41.459 16.0295 41.8587 16.0622 42.2584 16.0622C42.6582 16.0622 43.0579 16.0295 43.4416 15.9804C44.6088 15.833 45.696 15.44 46.6873 14.8833C49.4534 13.2951 51.3241 10.2661 51.3241 6.77855V0H49.1176H46.6873V6.77855C46.6873 9.28367 44.7047 11.314 42.2584 11.314ZM20.082 26.1318H15.2054L19.6023 40H24.4789H27.2449L31.2262 27.4417L32.7291 22.6934L34.8396 16.0622H32.4013H29.963L23.7754 35.5628H23.0719L20.082 26.1318ZM47.5507 24.0524H37.9574C38.9488 22.3987 40.7235 21.2853 42.7541 21.2853C44.7847 21.2853 46.5594 22.3987 47.5507 24.0524Z" fill="#DA151E"/>
</svg>
