<svg width="32" height="32" viewBox="0 0 32 32" fill="none" xmlns="http://www.w3.org/2000/svg">
    <path opacity="0.1" fill-rule="evenodd" clip-rule="evenodd" d="M0 16C0 7.16344 7.16344 0 16 0C24.8366 0 32 7.16344 32 16C32 24.8366 24.8366 32 16 32C7.16344 32 0 24.8366 0 16Z" fill="white"/>
    <path d="M22.3397 11.4926C20.2771 9.94911 18.3009 9.99249 18.3009 9.99249L18.0989 10.2232C20.5511 10.9589 21.6906 12.0407 21.6906 12.0407C18.1823 10.1091 13.7136 10.123 10.0644 12.0407C10.0644 12.0407 11.2472 10.9011 13.8437 10.1655L13.6995 9.99231C13.6995 9.99231 11.7377 9.94911 9.6607 11.4924C9.6607 11.4924 7.5835 15.2283 7.5835 19.8298C7.5835 19.8298 8.79526 21.907 11.9831 22.008C11.9831 22.008 12.5168 21.3733 12.9495 20.8252C11.1176 20.2771 10.4252 19.1376 10.4252 19.1376C11.5761 19.8577 12.7398 20.3085 14.19 20.5945C16.5495 21.0801 19.4844 20.5808 21.6764 19.1376C21.6764 19.1376 20.9552 20.3059 19.0655 20.8396C19.4982 21.3733 20.0175 21.9936 20.0175 21.9936C23.2053 21.8926 24.4169 19.8154 24.4169 19.83C24.4167 15.2285 22.3397 11.4926 22.3397 11.4926ZM13.31 18.4885C12.5022 18.4885 11.8387 17.7816 11.8387 16.9018C11.8977 14.7945 14.7371 14.801 14.7813 16.9018C14.7813 17.7816 14.1321 18.4885 13.31 18.4885ZM18.5748 18.4885C17.767 18.4885 17.1035 17.7816 17.1035 16.9018C17.1683 14.7987 19.9722 14.7978 20.0462 16.9018C20.0462 17.7816 19.3971 18.4885 18.5748 18.4885Z" fill="#FBFBFD"/>
</svg>
