<svg width="57" height="56" viewBox="0 0 57 56" fill="none" xmlns="http://www.w3.org/2000/svg">
    <path d="M48.2232 13.9766C41.8061 9.17457 35.6579 9.30953 35.6579 9.30953L35.0296 10.0275C42.6585 12.3162 46.2038 15.6818 46.2038 15.6818C35.2889 9.67241 21.3863 9.71553 10.0334 15.6818C10.0334 15.6818 13.7132 12.1364 21.7912 9.84769L21.3426 9.30897C21.3426 9.30897 15.2392 9.17457 8.77734 13.976C8.77734 13.976 2.31494 25.5988 2.31494 39.9147C2.31494 39.9147 6.08486 46.3771 16.0025 46.6912C16.0025 46.6912 17.6629 44.7167 19.0091 43.0115C13.31 41.3063 11.1557 37.7609 11.1557 37.7609C14.7363 40.0015 18.3567 41.4037 22.8686 42.2935C30.2091 43.8044 39.3399 42.251 46.1596 37.7609C46.1596 37.7609 43.9157 41.3959 38.0368 43.0563C39.383 44.7167 40.9986 46.6464 40.9986 46.6464C50.9162 46.3323 54.6856 39.8699 54.6856 39.9152C54.685 25.5994 48.2232 13.9766 48.2232 13.9766ZM20.1308 35.7415C17.6175 35.7415 15.5533 33.5424 15.5533 30.8051C15.737 24.2492 24.5705 24.2694 24.7082 30.8051C24.7082 33.5424 22.6883 35.7415 20.1308 35.7415ZM36.5102 35.7415C33.9969 35.7415 31.9328 33.5424 31.9328 30.8051C32.1344 24.2621 40.8575 24.2593 41.0877 30.8051C41.0877 33.5424 39.0683 35.7415 36.5102 35.7415Z" fill="#6665D2"/>
</svg>
