<svg width="96" height="40" viewBox="0 0 96 40" fill="none" xmlns="http://www.w3.org/2000/svg">
    <path d="M59.5404 5.77963V1.42432H57.8729V0.474673H62.1986V1.42432H60.5806V5.77963H59.5569H59.5404ZM62.6113 5.77963V0.474673H63.6515V5.77963H62.6113ZM66.7885 5.82875C66.029 5.82875 65.3851 5.56677 64.8568 5.04283C64.3284 4.51888 64.0643 3.88032 64.0643 3.12715C64.0643 2.37398 64.3284 1.73542 64.8568 1.21147C65.3851 0.687526 66.029 0.40918 66.7885 0.40918C67.3333 0.40918 67.8286 0.556539 68.2579 0.851259C68.6872 1.14598 69.0174 1.53894 69.232 2.03014L68.2579 2.30848C68.1093 2.03014 67.9112 1.80091 67.6635 1.63718C67.4159 1.47344 67.1187 1.39158 66.7885 1.37521C66.3097 1.37521 65.8969 1.53894 65.5832 1.88278C65.253 2.22662 65.1044 2.63595 65.1044 3.12715C65.1044 3.61835 65.2695 4.02768 65.5832 4.35515C65.9134 4.69899 66.3097 4.86272 66.7885 4.86272C67.4489 4.86272 67.9277 4.568 68.2414 3.96219L69.232 4.22416C69.0174 4.71536 68.6872 5.09195 68.2579 5.38667C67.8286 5.68139 67.3333 5.82875 66.7885 5.82875ZM69.6282 5.77963V0.474673H70.6684V3.0944L72.9799 0.474673H74.2512L72.0553 2.93067L74.3172 5.796H73.0459L71.3783 3.70022L70.6684 4.48613V5.81237H69.6282V5.77963ZM74.5318 5.77963V0.474673H78.3787V1.40795H75.572V2.65232H78.0816V3.5856H75.572V4.82997H78.3787V5.77963H74.5318ZM80.393 5.77963V1.42432H78.7255V0.474673H83.0512V1.42432H81.4332V5.77963H80.4095H80.393ZM83.4639 5.77963V0.474673H84.5041V5.77963H83.4639ZM85.115 5.77963V0.474673H86.8155L88.7968 4.87909V0.474673H89.8039V5.77963H88.1529L86.1221 1.26059V5.77963H85.115ZM92.9244 5.84512C92.1649 5.84512 91.521 5.58315 90.9927 5.0592C90.4643 4.53525 90.2002 3.8967 90.2002 3.14352C90.2002 2.39035 90.4643 1.75179 90.9927 1.22785C91.521 0.703899 92.1649 0.425553 92.9244 0.425553C93.4692 0.425553 93.9645 0.572913 94.3938 0.851259C94.8231 1.14598 95.1533 1.52256 95.3679 2.01376L94.3773 2.29211C94.2452 2.01376 94.0471 1.78454 93.7829 1.63718C93.5353 1.47344 93.2381 1.40795 92.9244 1.40795C92.4456 1.40795 92.0328 1.57168 91.7191 1.91552C91.3889 2.25936 91.2403 2.6687 91.2403 3.1599C91.2403 3.6511 91.4054 4.06043 91.7191 4.38789C92.0493 4.71536 92.4456 4.89547 92.9244 4.89547C93.2876 4.89547 93.6178 4.79723 93.8985 4.58437C94.1792 4.37152 94.3773 4.09317 94.4929 3.71659H92.9409L92.9244 2.8488H95.5V3.22539C95.5 3.97856 95.2523 4.61712 94.757 5.10832C94.2617 5.59952 93.6508 5.84512 92.9079 5.84512H92.9244ZM60.0192 12.7547C59.2762 12.7383 58.5498 12.5091 57.8564 12.0342V10.97C58.6489 11.5267 59.3918 11.805 60.0687 11.805C60.3494 11.805 60.5641 11.7559 60.7292 11.6576C60.8943 11.5594 60.9768 11.412 60.9768 11.2319C60.9768 11.0518 60.8612 10.8881 60.6466 10.7735C60.432 10.6425 60.0687 10.5279 59.5569 10.3969C58.9625 10.2495 58.5333 10.0694 58.2526 9.82383C57.9719 9.57823 57.8398 9.26714 57.8398 8.90693C57.8398 8.44848 58.0215 8.07189 58.4012 7.77717C58.7809 7.48245 59.2432 7.35146 59.7881 7.35146C60.498 7.35146 61.1749 7.53157 61.8023 7.90816V8.95605C61.5051 8.75957 61.1749 8.61221 60.8117 8.48122C60.4485 8.35024 60.1018 8.28474 59.7881 8.28474C59.5239 8.28474 59.2928 8.33386 59.1277 8.44848C58.9625 8.56309 58.8635 8.71045 58.8635 8.89056C58.8635 8.95605 58.88 9.02154 58.913 9.08704C58.946 9.13616 58.9956 9.20165 59.0616 9.2344C59.1442 9.28351 59.2102 9.31626 59.2762 9.34901C59.3423 9.38175 59.4413 9.4145 59.5899 9.44725C59.722 9.47999 59.8376 9.51274 59.9202 9.54549C60.0027 9.56186 60.1348 9.59461 60.3164 9.64373C61.4556 9.92207 62.017 10.446 62.017 11.2483C62.017 11.7395 61.8188 12.1161 61.4391 12.3944C61.0594 12.6728 60.5806 12.7874 60.0357 12.7874L60.0192 12.7547ZM63.8001 12.6892V11.0355L61.9344 7.38421H63.0406L64.2954 9.87295L65.5667 7.38421H66.6564L64.8237 11.0027V12.6892H63.7836H63.8001ZM68.8027 12.7547C68.0598 12.7383 67.3333 12.5091 66.6399 12.0342V10.97C67.4324 11.5267 68.1753 11.805 68.8523 11.805C69.1329 11.805 69.3476 11.7559 69.5127 11.6576C69.6778 11.5594 69.7603 11.412 69.7603 11.2319C69.7603 11.0518 69.6448 10.8881 69.4301 10.7735C69.2155 10.6425 68.8523 10.5279 68.3404 10.3969C67.7461 10.2495 67.3168 10.0694 67.0361 9.82383C66.7554 9.57823 66.6234 9.26714 66.6234 8.90693C66.6234 8.44848 66.805 8.07189 67.1847 7.77717C67.5645 7.48245 68.0267 7.35146 68.5716 7.35146C69.2815 7.35146 69.9585 7.53157 70.5859 7.90816V8.95605C70.2887 8.75957 69.9585 8.61221 69.5952 8.48122C69.232 8.35024 68.8853 8.28474 68.5716 8.28474C68.3074 8.28474 68.0763 8.33386 67.9112 8.44848C67.7296 8.56309 67.647 8.71045 67.647 8.89056C67.647 8.95605 67.6635 9.02154 67.6965 9.08704C67.7296 9.13616 67.7791 9.20165 67.8451 9.2344C67.9277 9.28351 67.9937 9.31626 68.0598 9.34901C68.1258 9.38175 68.2249 9.4145 68.3735 9.44725C68.5055 9.47999 68.6211 9.51274 68.7037 9.54549C68.7862 9.56186 68.9183 9.59461 69.0999 9.64373C70.2391 9.92207 70.8005 10.446 70.8005 11.2483C70.8005 11.7395 70.6024 12.1161 70.2226 12.3944C69.8429 12.6728 69.3641 12.7874 68.8192 12.7874L68.8027 12.7547ZM72.6992 12.6892V8.33386H71.0316V7.38421H75.3573V8.33386H73.7393V12.6892H72.7157H72.6992ZM75.7536 12.6892V7.38421H79.6005V8.31749H76.7937V9.56186H79.3033V10.4951H76.7937V11.7395H79.6005V12.6892H75.7536ZM80.1123 12.6892V7.38421H81.7634L83.1668 11.936L84.5701 7.38421H86.2377V12.6892H85.2471V8.35024L83.9097 12.6892H82.4403L81.103 8.36661V12.6892H80.1123Z" fill="#DA151E"/>
    <path fill-rule="evenodd" clip-rule="evenodd" d="M44.6487 32.7957C42.0731 32.7957 39.8937 31.1257 39.1343 28.8334H50.1467H54.588C54.687 28.2603 54.7531 27.6709 54.7531 27.0651C54.7531 26.0336 54.588 25.0348 54.2908 24.0851C53.2341 20.745 50.4604 18.1416 46.9932 17.323C46.4153 17.192 45.8375 17.0937 45.2266 17.061H44.0544C43.427 17.0937 42.7996 17.192 42.2052 17.3393C38.771 18.1744 36.0468 20.7614 34.9902 24.0851C34.693 25.0184 34.5279 26.0336 34.5279 27.0651C34.5279 27.6709 34.5774 28.2603 34.693 28.8334C35.535 33.5162 39.6626 37.0692 44.6322 37.0692C48.4461 37.0692 51.7647 34.9734 53.4818 31.8788L49.1065 30.7C48.0499 31.9771 46.4319 32.7957 44.6322 32.7957H44.6487ZM19.9657 9.67663V0.0327466H15.1777H10.2576H10.2081C8.40847 0.0327466 6.72441 0.523946 5.28801 1.35898C2.4152 3.04544 0.5 6.13999 0.5 9.67663C0.5 11.2648 0.896249 12.7712 1.57317 14.0974C2.4152 15.7184 3.70301 17.061 5.28801 17.9943C5.30452 17.9943 5.30452 18.0106 5.32103 18.0106C6.75743 18.8457 8.44149 19.3369 10.2411 19.3369C12.0407 19.3369 13.7083 18.8621 15.1612 18.0106C15.1777 18.0106 15.1777 17.9943 15.1942 17.9943V18.5182C15.1942 21.2198 12.9818 23.4138 10.2576 23.4138C7.8306 23.4138 5.81634 21.6783 5.40358 19.386H5.32103H0.566041C0.846718 22.5624 2.69588 25.2804 5.32103 26.8195C6.77394 27.6709 8.458 28.1457 10.2576 28.1457C12.0573 28.1457 13.7413 27.6545 15.1942 26.8195C17.8194 25.2804 19.652 22.5461 19.9492 19.386C19.9822 19.0913 19.9822 18.7966 19.9822 18.5018V9.66025L19.9657 9.67663ZM5.28801 10.2006V9.67663C5.28801 6.97503 7.5004 4.78101 10.2246 4.78101H15.1612V9.67663V10.2006C15.1447 10.2006 15.1447 10.1842 15.1282 10.1842C14.9466 11.9198 13.8569 13.377 12.3379 14.0974C11.694 14.4085 10.9676 14.5722 10.2081 14.5722C9.44862 14.5722 8.72217 14.4085 8.07826 14.0974C6.55931 13.377 5.46962 11.9198 5.28801 10.1842C5.2715 10.1842 5.2715 10.2006 5.25499 10.2006H5.28801ZM14.6494 1.09701C14.3357 1.08064 13.8569 0.851412 13.1965 0.605813C13.8569 0.851412 14.3192 1.09701 14.6494 1.09701ZM14.6989 1.09701H14.6824H14.6989ZM25.7444 4.45354H33.7684V0H25.7444H20.9729V19.3696H25.2325H25.7609C25.7444 14.867 25.7444 10.1187 25.7444 5.5833C25.7444 5.20671 25.7444 4.83013 25.7444 4.43717V4.45354ZM44.1369 11.314C41.6108 11.314 39.5635 9.28367 39.5635 6.77855V0H37.054H34.7755V6.77855C34.7755 10.2661 36.7072 13.2951 39.5635 14.8833C40.5707 15.44 41.7099 15.833 42.9151 15.9804C43.3114 16.0295 43.7242 16.0622 44.1369 16.0622C44.5497 16.0622 44.9624 16.0295 45.3587 15.9804C46.5639 15.833 47.6866 15.44 48.7103 14.8833C51.5666 13.2951 53.4983 10.2661 53.4983 6.77855V0H51.2199H48.7103V6.77855C48.7103 9.28367 46.663 11.314 44.1369 11.314ZM21.237 26.1318H16.2014L20.7417 40H21.4021H25.7774H28.0228H28.6337L32.7448 27.4417L34.2967 22.6934L36.4101 16.2751L36.7072 15.3582L36.4761 16.0622H31.4404L31.3744 16.2751L25.0509 35.5628H24.3245L21.237 26.1318ZM49.6018 24.0524H39.6956C40.7193 22.3987 42.5519 21.2853 44.6487 21.2853C46.7455 21.2853 48.5782 22.3987 49.6018 24.0524Z" fill="white"/>
</svg>
