<svg width="32" height="32" viewBox="0 0 32 32" fill="none" xmlns="http://www.w3.org/2000/svg">
    <path opacity="0.1" fill-rule="evenodd" clip-rule="evenodd" d="M0 16C0 7.16344 7.16344 0 16 0C24.8366 0 32 7.16344 32 16C32 24.8366 24.8366 32 16 32C7.16344 32 0 24.8366 0 16Z" fill="white"/>
    <g clip-path="url(#clip0_3169_4407)">
        <path d="M16.3636 13.141C14.8028 13.141 13.5291 14.4148 13.5291 15.9756C13.5291 17.5364 14.8028 18.8101 16.3636 18.8101C17.9244 18.8101 19.1981 17.5364 19.1981 15.9756C19.1981 14.4148 17.9244 13.141 16.3636 13.141ZM24.8651 15.9756C24.8651 14.8018 24.8757 13.6386 24.8098 12.467C24.7439 11.106 24.4334 9.89823 23.4383 8.90306C22.441 7.90576 21.2353 7.59743 19.8743 7.53151C18.7006 7.46559 17.5374 7.47622 16.3657 7.47622C15.1919 7.47622 14.0288 7.46559 12.8571 7.53151C11.4962 7.59743 10.2884 7.90788 9.29319 8.90306C8.2959 9.90036 7.98756 11.106 7.92164 12.467C7.85572 13.6408 7.86636 14.8039 7.86636 15.9756C7.86636 17.1473 7.85572 18.3125 7.92164 19.4842C7.98756 20.8451 8.29802 22.0529 9.29319 23.0481C10.2905 24.0454 11.4962 24.3537 12.8571 24.4197C14.0309 24.4856 15.1941 24.475 16.3657 24.475C17.5395 24.475 18.7027 24.4856 19.8743 24.4197C21.2353 24.3537 22.4431 24.0433 23.4383 23.0481C24.4356 22.0508 24.7439 20.8451 24.8098 19.4842C24.8779 18.3125 24.8651 17.1494 24.8651 15.9756ZM16.3636 20.3369C13.9501 20.3369 12.0023 18.3891 12.0023 15.9756C12.0023 13.5621 13.9501 11.6143 16.3636 11.6143C18.7771 11.6143 20.7249 13.5621 20.7249 15.9756C20.7249 18.3891 18.7771 20.3369 16.3636 20.3369ZM20.9035 12.4542C20.34 12.4542 19.885 11.9991 19.885 11.4356C19.885 10.8721 20.34 10.4171 20.9035 10.4171C21.467 10.4171 21.9221 10.8721 21.9221 11.4356C21.9223 11.5695 21.896 11.702 21.8449 11.8256C21.7938 11.9493 21.7188 12.0616 21.6241 12.1563C21.5295 12.2509 21.4172 12.3259 21.2935 12.377C21.1699 12.4281 21.0373 12.4544 20.9035 12.4542Z" fill="white"/>
    </g>
    <defs>
        <clipPath id="clip0_3169_4407">
            <rect width="18" height="18" fill="white" transform="translate(7 6.61182)"/>
        </clipPath>
    </defs>
</svg>
