<svg xmlns="http://www.w3.org/2000/svg" width="32" height="32" fill="none"><path fill="#fff" fill-rule="evenodd" d="M0 16a16 16 0 1 1 32 0 16 16 0 0 1-32 0Z" clip-rule="evenodd" opacity=".1"/><g clip-path="url(#a)"><path fill="#FBFBFD" fill-rule="evenodd" d="M24 22h-3.54v-4.92c0-1.29-.55-2.17-1.77-2.17-.93 0-1.44.6-1.68 1.17-.1.2-.08.49-.08.77V22h-3.5s.04-8.72 0-9.51h3.5v1.5c.2-.66 1.33-1.6 3.11-1.6 2.22 0 3.96 1.38 3.96 4.32V22ZM9.88 11.3h-.02C8.73 11.3 8 10.57 8 9.65 8 8.71 8.75 8 9.9 8c1.16 0 1.86.71 1.89 1.65 0 .92-.73 1.65-1.9 1.65ZM8.4 12.49h3.12V22H8.4v-9.51Z" clip-rule="evenodd"/></g>
    <defs>
        <clipPath id="a"><path fill="#fff" d="M8 8h16v14H8z"/></clipPath>
    </defs>
</svg>
