<svg width="56" height="56" viewBox="0 0 56 56" fill="none" xmlns="http://www.w3.org/2000/svg">
    <path fill-rule="evenodd" clip-rule="evenodd" d="M52 52H41.3909V35.1256C41.3909 30.7096 39.7327 27.694 36.0825 27.694C33.292 27.694 31.7396 29.7292 31.0175 31.69C30.7458 32.3932 30.7884 33.3736 30.7884 34.354V52H20.2785C20.2785 52 20.4138 22.1092 20.2785 19.3924H30.7884V24.5104C31.4102 22.2724 34.768 19.0792 40.1265 19.0792C46.7756 19.0792 52 23.7688 52 33.8692V52ZM9.65091 15.3136H9.58218C6.196 15.3136 4 12.8212 4 9.6616C4 6.4408 6.26036 4 9.71527 4C13.1669 4 15.2898 6.4348 15.3564 9.652C15.3564 12.8116 13.1669 15.3136 9.65091 15.3136ZM5.21091 19.3924H14.5665V52H5.21091V19.3924Z" fill="#007EBB"/>
</svg>
