<svg width="161" height="80" viewBox="0 0 161 80" fill="none" xmlns="http://www.w3.org/2000/svg">
    <g clip-path="url(#clip0_1109_2687)">
        <path d="M57.6764 27.7797V23.4244H56.0615V22.4748H60.2506V23.4244H58.6837V27.7797H57.6924H57.6764ZM60.6503 27.7797V22.4748H61.6576V27.7797H60.6503ZM64.6955 27.8289C63.96 27.8289 63.3364 27.5669 62.8248 27.0429C62.3131 26.519 62.0573 25.8804 62.0573 25.1273C62.0573 24.3741 62.3131 23.7355 62.8248 23.2116C63.3364 22.6876 63.96 22.4093 64.6955 22.4093C65.2231 22.4093 65.7028 22.5567 66.1185 22.8514C66.5342 23.1461 66.854 23.5391 67.0618 24.0303L66.1185 24.3086C65.9746 24.0303 65.7827 23.801 65.5429 23.6373C65.3031 23.4736 65.0153 23.3917 64.6955 23.3753C64.2318 23.3753 63.8321 23.5391 63.5283 23.8829C63.2085 24.2267 63.0646 24.6361 63.0646 25.1273C63.0646 25.6185 63.2245 26.0278 63.5283 26.3553C63.8481 26.6991 64.2318 26.8628 64.6955 26.8628C65.335 26.8628 65.7987 26.5681 66.1025 25.9623L67.0618 26.2243C66.854 26.7155 66.5342 27.0921 66.1185 27.3868C65.7028 27.6815 65.2231 27.8289 64.6955 27.8289ZM67.4456 27.7797V22.4748H68.4528V25.0945L70.6913 22.4748H71.9224L69.7959 24.9308L71.9864 27.7961H70.7552L69.1404 25.7003L68.4528 26.4863V27.8125H67.4456V27.7797ZM72.1942 27.7797V22.4748H75.9196V23.4081H73.2015V24.6524H75.6318V25.5857H73.2015V26.8301H75.9196V27.7797H72.1942ZM77.8703 27.7797V23.4244H76.2554V22.4748H80.4445V23.4244H78.8776V27.7797H77.8862H77.8703ZM80.8442 27.7797V22.4748H81.8515V27.7797H80.8442ZM82.4431 27.7797V22.4748H84.0899L86.0086 26.8792V22.4748H86.9839V27.7797H85.385L83.4184 23.2607V27.7797H82.4431ZM90.0058 27.8452C89.2703 27.8452 88.6467 27.5833 88.1351 27.0593C87.6234 26.5354 87.3676 25.8968 87.3676 25.1436C87.3676 24.3905 87.6234 23.7519 88.1351 23.228C88.6467 22.704 89.2703 22.4257 90.0058 22.4257C90.5334 22.4257 91.0131 22.573 91.4288 22.8514C91.8445 23.1461 92.1643 23.5227 92.3721 24.0139L91.4128 24.2922C91.2849 24.0139 91.093 23.7847 90.8372 23.6373C90.5974 23.4736 90.3096 23.4081 90.0058 23.4081C89.5421 23.4081 89.1424 23.5718 88.8386 23.9156C88.5188 24.2595 88.3749 24.6688 88.3749 25.16C88.3749 25.6512 88.5348 26.0606 88.8386 26.388C89.1584 26.7155 89.5421 26.8956 90.0058 26.8956C90.3575 26.8956 90.6773 26.7973 90.9491 26.5845C91.2209 26.3716 91.4128 26.0933 91.5247 25.7167H90.0218L90.0058 24.8489H92.5V25.2255C92.5 25.9787 92.2602 26.6172 91.7805 27.1084C91.3009 27.5996 90.7093 27.8452 89.9898 27.8452H90.0058ZM58.1401 34.7548C57.4206 34.7384 56.7171 34.5092 56.0455 34.0344V32.9701C56.813 33.5268 57.5325 33.8051 58.188 33.8051C58.4598 33.8051 58.6677 33.756 58.8276 33.6578C58.9875 33.5595 59.0674 33.4122 59.0674 33.2321C59.0674 33.052 58.9555 32.8882 58.7476 32.7736C58.5398 32.6426 58.188 32.528 57.6924 32.397C57.1168 32.2497 56.7011 32.0696 56.4293 31.824C56.1575 31.5784 56.0295 31.2673 56.0295 30.9071C56.0295 30.4486 56.2054 30.072 56.5732 29.7773C56.9409 29.4826 57.3886 29.3516 57.9162 29.3516C58.6037 29.3516 59.2593 29.5317 59.8669 29.9083V30.9562C59.5791 30.7597 59.2593 30.6123 58.9075 30.4813C58.5558 30.3504 58.22 30.2849 57.9162 30.2849C57.6604 30.2849 57.4366 30.334 57.2767 30.4486C57.1168 30.5632 57.0208 30.7106 57.0208 30.8907C57.0208 30.9562 57.0368 31.0217 57.0688 31.0872C57.1008 31.1363 57.1488 31.2018 57.2127 31.2345C57.2927 31.2836 57.3566 31.3164 57.4206 31.3491C57.4845 31.3819 57.5805 31.4146 57.7244 31.4474C57.8523 31.4801 57.9642 31.5129 58.0441 31.5456C58.1241 31.562 58.252 31.5947 58.4279 31.6438C59.5311 31.9222 60.0747 32.4461 60.0747 33.2484C60.0747 33.7396 59.8828 34.1162 59.5151 34.3946C59.1474 34.6729 58.6837 34.7875 58.1561 34.7875L58.1401 34.7548ZM61.8015 34.6893V33.0356L59.9948 29.3843H61.066L62.2812 31.8731L63.5123 29.3843H64.5676L62.7928 33.0028V34.6893H61.7855H61.8015ZM66.6461 34.7548C65.9266 34.7384 65.2231 34.5092 64.5516 34.0344V32.9701C65.319 33.5268 66.0385 33.8051 66.6941 33.8051C66.9659 33.8051 67.1737 33.756 67.3336 33.6578C67.4935 33.5595 67.5735 33.4122 67.5735 33.2321C67.5735 33.052 67.4615 32.8882 67.2537 32.7736C67.0458 32.6426 66.6941 32.528 66.1984 32.397C65.6228 32.2497 65.2071 32.0696 64.9353 31.824C64.6635 31.5784 64.5356 31.2673 64.5356 30.9071C64.5356 30.4486 64.7115 30.072 65.0792 29.7773C65.447 29.4826 65.8946 29.3516 66.4223 29.3516C67.1098 29.3516 67.7653 29.5317 68.3729 29.9083V30.9562C68.0851 30.7597 67.7653 30.6123 67.4136 30.4813C67.0618 30.3504 66.7261 30.2849 66.4223 30.2849C66.1664 30.2849 65.9426 30.334 65.7827 30.4486C65.6068 30.5632 65.5269 30.7106 65.5269 30.8907C65.5269 30.9562 65.5429 31.0217 65.5749 31.0872C65.6068 31.1363 65.6548 31.2018 65.7188 31.2345C65.7987 31.2836 65.8627 31.3164 65.9266 31.3491C65.9906 31.3819 66.0865 31.4146 66.2304 31.4474C66.3583 31.4801 66.4702 31.5129 66.5502 31.5456C66.6301 31.562 66.758 31.5947 66.9339 31.6438C68.0371 31.9222 68.5808 32.4461 68.5808 33.2484C68.5808 33.7396 68.3889 34.1162 68.0212 34.3946C67.6534 34.6729 67.1897 34.7875 66.6621 34.7875L66.6461 34.7548ZM70.4195 34.6893V30.334H68.8046V29.3843H72.9937V30.334H71.4268V34.6893H70.4355H70.4195ZM73.3774 34.6893V29.3843H77.1028V30.3176H74.3847V31.562H76.815V32.4953H74.3847V33.7396H77.1028V34.6893H73.3774ZM77.5985 34.6893V29.3843H79.1973L80.5564 33.9361L81.9154 29.3843H83.5303V34.6893H82.571V30.3504L81.2759 34.6893H79.8529L78.5578 30.3667V34.6893H77.5985Z" fill="#DA151E"/>
        <path fill-rule="evenodd" clip-rule="evenodd" d="M43.2541 54.7957C40.7598 54.7957 38.6493 53.1257 37.9138 50.8334H48.5784H52.8794C52.9753 50.2603 53.0392 49.6709 53.0392 49.0651C53.0392 48.0336 52.8794 47.0348 52.5916 46.0851C51.5683 42.745 48.8822 40.1416 45.5245 39.323C44.9649 39.192 44.4053 39.0937 43.8137 39.061H42.6785C42.0709 39.0937 41.4633 39.192 40.8877 39.3393C37.5621 40.1744 34.9239 42.7614 33.9006 46.0851C33.6128 47.0184 33.4529 48.0336 33.4529 49.0651C33.4529 49.6709 33.5009 50.2603 33.6128 50.8334C34.4283 55.5162 38.4255 59.0692 43.2381 59.0692C46.9315 59.0692 50.1453 56.9734 51.8081 53.8788L47.5711 52.7C46.5478 53.9771 44.9809 54.7957 43.2381 54.7957H43.2541ZM19.3508 31.6766V22.0327H14.7141H9.94939H9.90142C8.15864 22.0327 6.52778 22.5239 5.13676 23.359C2.3547 25.0454 0.5 28.14 0.5 31.6766C0.5 33.2648 0.883732 34.7712 1.53927 36.0974C2.3547 37.7184 3.60183 39.061 5.13676 39.9943C5.15275 39.9943 5.15275 40.0106 5.16873 40.0106C6.55976 40.8457 8.19062 41.3369 9.9334 41.3369C11.6762 41.3369 13.2911 40.8621 14.6981 40.0106C14.7141 40.0106 14.7141 39.9943 14.73 39.9943V40.5182C14.73 43.2198 12.5875 45.4138 9.94939 45.4138C7.59903 45.4138 5.6484 43.6783 5.24868 41.386H5.16873H0.563955C0.835765 44.5624 2.62651 47.2804 5.16873 48.8195C6.57575 49.6709 8.20661 50.1457 9.94939 50.1457C11.6922 50.1457 13.323 49.6545 14.73 48.8195C17.2723 47.2804 19.047 44.5461 19.3348 41.386C19.3668 41.0913 19.3668 40.7966 19.3668 40.5018V31.6603L19.3508 31.6766ZM5.13676 32.2006V31.6766C5.13676 28.975 7.27926 26.781 9.91741 26.781H14.6981V31.6766V32.2006C14.6821 32.2006 14.6821 32.1842 14.6661 32.1842C14.4902 33.9198 13.435 35.377 11.964 36.0974C11.3404 36.4085 10.6369 36.5722 9.90142 36.5722C9.16594 36.5722 8.46243 36.4085 7.83887 36.0974C6.3679 35.377 5.31263 33.9198 5.13676 32.1842C5.12077 32.1842 5.12077 32.2006 5.10478 32.2006H5.13676ZM14.2024 23.097C13.8986 23.0806 13.435 22.8514 12.7954 22.6058C13.435 22.8514 13.8826 23.097 14.2024 23.097ZM14.2504 23.097H14.2344H14.2504ZM24.9469 26.4535H32.7175V22H24.9469H20.3261V41.3696H24.4512H24.9629C24.9469 36.867 24.9469 32.1187 24.9469 27.5833C24.9469 27.2067 24.9469 26.8301 24.9469 26.4372V26.4535ZM42.7584 33.314C40.3121 33.314 38.3295 31.2837 38.3295 28.7786V22H35.8992H33.6928V28.7786C33.6928 32.2661 35.5635 35.2951 38.3295 36.8833C39.3049 37.44 40.4081 37.833 41.5753 37.9804C41.959 38.0295 42.3587 38.0622 42.7584 38.0622C43.1582 38.0622 43.5579 38.0295 43.9416 37.9804C45.1088 37.833 46.196 37.44 47.1873 36.8833C49.9534 35.2951 51.8241 32.2661 51.8241 28.7786V22H49.6176H47.1873V28.7786C47.1873 31.2837 45.2047 33.314 42.7584 33.314ZM20.582 48.1318H15.7054L20.1023 62H20.7418H24.9789H27.1534H27.7449L31.7262 49.4417L33.2291 44.6934L35.2757 38.2751L35.5635 37.3582L35.3396 38.0622H30.463L30.3991 38.2751L24.2754 57.5628H23.5719L20.582 48.1318ZM48.0507 46.0524H38.4574C39.4488 44.3987 41.2235 43.2853 43.2541 43.2853C45.2847 43.2853 47.0594 44.3987 48.0507 46.0524Z" fill="#DA151E"/>
    </g>
    <defs>
        <clipPath id="clip0_1109_2687">
            <rect width="160" height="80" fill="white" transform="translate(0.5)"/>
        </clipPath>
    </defs>
</svg>
