<svg width="57" height="56" viewBox="0 0 57 56" fill="none" xmlns="http://www.w3.org/2000/svg">
<g clip-path="url(#clip0_5991_26411)">
<g style="mix-blend-mode:multiply">
<path d="M56.4836 0H0.516406C0.507345 0 0.5 0.00734533 0.5 0.0164063V55.9836C0.5 55.9927 0.507345 56 0.516406 56H56.4836C56.4927 56 56.5 55.9927 56.5 55.9836V0.0164063C56.5 0.00734533 56.4927 0 56.4836 0Z" fill="white"/>
</g>
<g style="mix-blend-mode:multiply">
<path d="M26.4216 23.5156C23.8376 23.1498 21.2036 23.5828 18.8727 24.7565C16.5417 25.9302 14.6254 27.7885 13.3806 30.0822C12.1358 32.376 11.6221 34.9955 11.9082 37.5895C12.1944 40.1835 13.2669 42.628 14.9818 44.5952C16.6967 46.5624 18.9721 47.9582 21.5028 48.5955C24.0335 49.2329 26.6986 49.0812 29.1407 48.1609C31.5828 47.2406 33.6851 45.5956 35.1658 43.4466C36.6464 41.2975 37.4347 38.7472 37.4247 36.1375V22.1375C40.2312 24.1451 43.5992 25.2167 47.0497 25.2V18.3093C44.497 18.3093 42.0489 17.2953 40.2438 15.4902C38.4388 13.6852 37.4247 11.237 37.4247 8.68433H30.4685V36.2031C30.466 37.4381 30.0728 38.6407 29.3451 39.6387C28.6175 40.6367 27.5928 41.3788 26.4176 41.7589C25.2425 42.1389 23.9772 42.1374 22.803 41.7546C21.6288 41.3717 20.6058 40.6272 19.8805 39.6275C19.1553 38.6278 18.7649 37.4242 18.7654 36.1892C18.7658 34.9541 19.157 33.7509 19.883 32.7517C20.609 31.7525 21.6325 31.0087 22.807 30.6267C23.9815 30.2446 25.2467 30.244 26.4216 30.625V23.5156Z" fill="#FF004F"/>
</g>
<g style="mix-blend-mode:multiply">
<path d="M24.4528 21.875C21.8689 21.5092 19.2348 21.9421 16.9039 23.1159C14.573 24.2896 12.6567 26.1479 11.4119 28.4416C10.1671 30.7353 9.6533 33.3548 9.9395 35.9488C10.2257 38.5428 11.2981 40.9873 13.013 42.9545C14.7279 44.9217 17.0033 46.3176 19.534 46.9549C22.0648 47.5922 24.7298 47.4406 27.1719 46.5203C29.614 45.6 31.7163 43.955 33.197 41.806C34.6777 39.6569 35.4659 37.1065 35.456 34.4968V20.4968C38.2624 22.5044 41.6304 23.5761 45.081 23.5593V16.6687C42.5283 16.6687 40.0801 15.6546 38.2751 13.8496C36.47 12.0446 35.456 9.59641 35.456 7.0437H28.4997V34.5625C28.4972 35.7975 28.104 37.0001 27.3764 37.9981C26.6487 38.996 25.624 39.7382 24.4489 40.1183C23.2737 40.4983 22.0085 40.4968 20.8343 40.114C19.66 39.7311 18.6371 38.9865 17.9118 37.9868C17.1865 36.9872 16.7962 35.7836 16.7966 34.5486C16.7971 33.3135 17.1883 32.1102 17.9142 31.1111C18.6402 30.1119 19.6637 29.3681 20.8382 28.986C22.0127 28.604 23.278 28.6034 24.4528 28.9843V21.875Z" fill="#00F2EA"/>
</g>
</g>
<defs>
<clipPath id="clip0_5991_26411">
<rect width="56" height="56" fill="white" transform="translate(0.5)"/>
</clipPath>
</defs>
</svg>
