<svg width="48" height="48" viewBox="0 0 48 48" fill="none" xmlns="http://www.w3.org/2000/svg">
    <path d="M46.3225 5.30833C44.4247 6.46319 42.3403 7.27863 40.1627 7.71808C38.3995 5.78533 35.878 4.58008 33.0872 4.58008C27.7375 4.58008 23.3972 9.03058 23.3972 14.5191C23.3972 15.2991 23.4805 16.0536 23.6477 16.7826C15.5897 16.3671 8.45048 12.4138 3.66548 6.39283C2.80201 7.91902 2.34975 9.64331 2.35298 11.3968C2.35298 14.8446 4.05248 17.8858 6.65423 19.6686C5.06723 19.6206 3.75023 19.1683 2.25023 18.4288V18.5526C2.25023 23.3698 5.60273 27.3883 10.0412 28.2973C9.22748 28.5313 8.37623 28.6476 7.49198 28.6476C6.86873 28.6476 6.25973 28.5876 5.67098 28.4721C6.90548 32.4186 10.4845 35.2948 14.728 35.3713C11.4122 38.0391 7.22873 39.6291 2.68898 39.6291C1.90898 39.6291 1.13348 39.5841 0.375977 39.4911C4.66748 42.3066 9.76523 43.9536 15.2365 43.9536C33.0692 43.9536 42.8185 28.8111 42.8185 15.6733C42.8185 15.2428 42.8087 14.8093 42.7937 14.3856C44.6984 12.9729 46.3352 11.231 47.6267 9.24208C45.8618 10.045 43.9843 10.5727 42.0595 10.8066C44.097 9.54789 45.611 7.5952 46.3225 5.30833Z" fill="#24A9E6"/>
    <path d="M46.3225 5.30833C44.4247 6.46319 42.3403 7.27863 40.1627 7.71808C38.3995 5.78533 35.878 4.58008 33.0872 4.58008C27.7375 4.58008 23.3972 9.03058 23.3972 14.5191C23.3972 15.2991 23.4805 16.0536 23.6477 16.7826C15.5897 16.3671 8.45048 12.4138 3.66548 6.39283C2.80201 7.91902 2.34975 9.64331 2.35298 11.3968C2.35298 14.8446 4.05248 17.8858 6.65423 19.6686C5.06723 19.6206 3.75023 19.1683 2.25023 18.4288V18.5526C2.25023 23.3698 5.60273 27.3883 10.0412 28.2973C9.22748 28.5313 8.37623 28.6476 7.49198 28.6476C6.86873 28.6476 6.25973 28.5876 5.67098 28.4721C6.90548 32.4186 10.4845 35.2948 14.728 35.3713C11.4122 38.0391 7.22873 39.6291 2.68898 39.6291C1.90898 39.6291 1.13348 39.5841 0.375977 39.4911C4.66748 42.3066 9.76523 43.9536 15.2365 43.9536C33.0692 43.9536 42.8185 28.8111 42.8185 15.6733C42.8185 15.2428 42.8087 14.8093 42.7937 14.3856C44.6984 12.9729 46.3352 11.231 47.6267 9.24208C45.8618 10.045 43.9843 10.5727 42.0595 10.8066C44.097 9.54789 45.611 7.5952 46.3225 5.30833Z" fill="#24A9E6"/>
    <path d="M47.6248 9.2411C45.8599 10.0441 43.9823 10.5717 42.0575 10.8056C44.0964 9.54805 45.6112 7.595 46.322 5.30735C44.4243 6.46221 42.3399 7.27765 40.1623 7.7171C38.399 5.78435 35.8775 4.5791 33.0868 4.5791C27.737 4.5791 23.3968 9.0296 23.3968 14.5181C23.3968 15.2981 23.48 16.0526 23.6473 16.7816C23.6435 16.7815 23.6397 16.781 23.636 16.7801L38.207 31.3571C41.2415 26.5451 42.8165 20.9479 42.8165 15.6731C42.8165 15.2426 42.8068 14.8091 42.7918 14.3854C44.6965 12.9724 46.3332 11.2302 47.6248 9.2411ZM14.7185 35.3779C11.4035 38.0411 7.22302 39.6281 2.68777 39.6281C1.90777 39.6281 1.13227 39.5831 0.374023 39.4901C4.66552 42.3056 9.76327 43.9526 15.2345 43.9526C17.6515 43.9595 20.0595 43.6594 22.4008 43.0593L14.7185 35.3779Z" fill="#169FDB"/>
    <path d="M46.3219 5.30833C44.4241 6.46319 42.3397 7.27863 40.1621 7.71808C38.3989 5.78533 35.8774 4.58008 33.0866 4.58008C27.7369 4.58008 23.3966 9.03058 23.3966 14.5191C23.3966 15.2991 23.4799 16.0536 23.6471 16.7826C17.0149 16.4413 11.0066 13.6978 6.42037 9.38233C11.1304 14.3571 17.5939 17.5588 24.7954 17.9301C24.6268 17.1879 24.5427 16.4291 24.5449 15.6681C24.5449 10.1781 28.8851 5.72758 34.2356 5.72758C37.0256 5.72758 39.5471 6.93358 41.3104 8.86558M8.73712 28.5666C7.71696 28.7005 6.68186 28.6686 5.67188 28.4721C6.23529 30.2688 7.29596 31.8693 8.73112 33.0883C7.86936 32.0711 7.21986 30.8917 6.82087 29.6196" fill="#3DC8F9"/>
    <path d="M45.9773 11.4012C46.5706 10.7157 47.1308 10.004 47.6251 9.24121C46.9186 9.56296 46.1828 9.83071 45.4336 10.0655" fill="#24A9E6"/>
    <path d="M1.34736 39.8039C1.14411 39.7777 0.820859 39.7387 0.599609 39.6367C1.20818 40.0361 1.83377 40.4089 2.47461 40.7542C2.92611 40.7857 3.38061 40.9072 3.83736 40.9072C8.37711 40.9072 12.5599 38.9999 15.8771 36.7499H15.8614C11.5136 38.9999 6.64686 40.4752 1.34736 39.8039ZM5.89236 19.0657C4.34513 17.2458 3.49739 14.9339 3.50136 12.5452C3.50136 10.7752 3.95586 9.11241 4.74786 7.66866C4.37481 7.25426 4.01391 6.82908 3.66561 6.39366C2.80215 7.91986 2.34988 9.64415 2.35311 11.3977C2.35311 14.4854 3.73386 17.2432 5.89236 19.0657ZM6.65436 19.6687C5.15361 19.5839 3.75036 19.1317 2.25036 18.4289V18.5527C2.25036 21.6404 3.62511 24.3952 5.77836 26.2162C4.29786 24.4717 3.75036 22.1954 3.75036 19.7009V19.4999M20.1724 11.8447C20.1724 11.8447 21.6401 7.34916 13.4756 5.05566C13.4756 5.05566 14.1679 8.74941 16.2739 10.5599C18.5674 12.5324 20.1724 11.8447 20.1724 11.8447ZM21.8411 10.0267C21.8411 10.0267 23.5369 9.03666 21.6364 6.07041C21.6364 6.07041 20.8309 7.40841 20.9839 8.55216C21.1519 9.79641 21.8411 10.0267 21.8411 10.0267ZM14.6824 12.3374C14.6824 12.3374 12.8951 13.1542 11.5631 9.89316C11.5631 9.89316 13.1201 10.0049 13.9684 10.7879C14.8901 11.6422 14.6824 12.3374 14.6824 12.3374Z" fill="#3DC8F9"/>
    <path d="M22.2109 15.6473C22.2109 15.6473 20.3727 16.3425 19.2627 12.999C19.2627 12.999 20.8092 13.215 21.6019 14.0528C22.4644 14.9678 22.2109 15.6473 22.2109 15.6473Z" fill="#24A9E6"/>
    <path d="M17.4657 14.2302C17.8712 14.2302 18.1999 13.9015 18.1999 13.496C18.1999 13.0905 17.8712 12.7617 17.4657 12.7617C17.0602 12.7617 16.7314 13.0905 16.7314 13.496C16.7314 13.9015 17.0602 14.2302 17.4657 14.2302Z" fill="#24A9E6"/>
    <path d="M12.7879 8.17452C12.94 8.17452 13.0632 8.05129 13.0632 7.89927C13.0632 7.74726 12.94 7.62402 12.7879 7.62402C12.6359 7.62402 12.5127 7.74726 12.5127 7.89927C12.5127 8.05129 12.6359 8.17452 12.7879 8.17452Z" fill="#24A9E6"/>
    <path d="M18.6126 4.3219C18.6888 4.3219 18.7506 4.26011 18.7506 4.1839C18.7506 4.10768 18.6888 4.0459 18.6126 4.0459C18.5364 4.0459 18.4746 4.10768 18.4746 4.1839C18.4746 4.26011 18.5364 4.3219 18.6126 4.3219Z" fill="#24A9E6"/>
    <path d="M19.163 6.79856C19.4417 6.79856 19.6677 6.57258 19.6677 6.29381C19.6677 6.01505 19.4417 5.78906 19.163 5.78906C18.8842 5.78906 18.6582 6.01505 18.6582 6.29381C18.6582 6.57258 18.8842 6.79856 19.163 6.79856Z" fill="#3DC8F9"/>
</svg>
